<?xml version="1.0" encoding="utf-8"?>
<!-- Generator: Adobe Illustrator 25.4.1, SVG Export Plug-In . SVG Version: 6.00 Build 0)  -->
<svg version="1.1" id="Layer_1" xmlns="http://www.w3.org/2000/svg" xmlns:xlink="http://www.w3.org/1999/xlink" x="0px" y="0px"
	 viewBox="0 0 200 200" style="enable-background:new 0 0 200 200;" xml:space="preserve">
<style type="text/css">
	.st0{fill:#BFBFBF;}
</style>
<g>
	<g>
		<path class="st0" d="M100,147.13c-3.33,0-6.04-2.7-6.04-6.04V21.66c0-3.33,2.7-6.04,6.04-6.04s6.04,2.7,6.04,6.04V141.1
			C106.04,144.43,103.33,147.13,100,147.13z"/>
		<path class="st0" d="M100,147.13c-1.54,0-3.09-0.59-4.27-1.77L47.05,96.69c-2.36-2.36-2.36-6.18,0-8.53
			c2.36-2.36,6.18-2.36,8.53,0L100,132.56l44.41-44.41c2.36-2.36,6.18-2.36,8.53,0s2.36,6.18,0,8.53l-48.68,48.68
			C103.09,146.54,101.54,147.13,100,147.13z"/>
	</g>
	<path class="st0" d="M161.2,184.38H38.8c-12.78,0-23.18-10.4-23.18-23.18v-21.63c0-3.33,2.7-6.04,6.04-6.04s6.04,2.7,6.04,6.04
		v21.63c0,6.12,4.98,11.11,11.11,11.11h122.4c6.12,0,11.11-4.98,11.11-11.11v-21.63c0-3.33,2.7-6.04,6.04-6.04s6.04,2.7,6.04,6.04
		v21.63C184.38,173.98,173.98,184.38,161.2,184.38z"/>
</g>
</svg>
