<svg xmlns="http://www.w3.org/2000/svg" viewBox="0 0 283.46 188.14"><defs><style>.cls-1{fill:#fdf7ea;}</style></defs><g id="Layer_2" data-name="Layer 2"><g id="&#x5716;&#x5C64;_5" data-name="&#x5716;&#x5C64; 5"><path class="cls-1" d="M283.41,93.63c-.14-1.8-.07-3.64-.34-5.42a47.82,47.82,0,0,1-.88-4.75c-.15-3.72-1.25-7.1-2.18-10.67-.05-.13-.11-.26-.15-.39-2.06-4.19-4.19-8.36-6.21-12.58A32.85,32.85,0,0,0,270.89,55c-1.29-1.78-3-3.21-4.34-4.94l-.45-.58a64.32,64.32,0,0,0-4.6-5.67c-1.9-1.89-4.05-3.58-6.06-5.35a134.2,134.2,0,0,0-11.1-8.93,81.47,81.47,0,0,0-11.4-6.89c-2.29-1.12-4.4-2.54-6.64-3.75s-4.58-1.76-6.79-2.86l-.64-.32c-1.41-.67-2.71-1.55-4.17-2.12a15.62,15.62,0,0,0-3.71-.72c-2.81-.42-5.25-2.27-8-3-2.46-.7-4.87-1.5-7.3-2.29a56.26,56.26,0,0,0-8.53-1.91c-3.17-.53-6.24-1.4-9.43-1.88-2.84-.42-5.64-1-8.46-1.51A116,116,0,0,0,149.68.53a40.56,40.56,0,0,1-4.41-.07A18.64,18.64,0,0,0,141.38,0c-3,.06-5.88.59-8.87.79l-.18,0c-5,.34-9.9.12-14.81,1.22l-.6.13c-2.89.65-5.87.29-8.76,1l-.7.17c-3.5.9-7.21,1-10.63,2.13-1.6.52-3.08,1.43-4.76,1.7-1.47.23-2.9.33-4.37.64-1.67.34-3.38.38-5,.83a24,24,0,0,0-4.62,2.17c-3,1.54-6.62,1.71-9.83,2.63s-6.29,2.93-9.32,4.31a95.78,95.78,0,0,0-9.9,5.4A144,144,0,0,0,31,35.79c-2.66,2.23-5.88,4.37-7.81,7.3a18.22,18.22,0,0,1-3.58,3.6,40,40,0,0,0-4,4.39l-.41.48c-2.62,3.06-4.26,6.89-6.29,10.33a44.9,44.9,0,0,0-3.15,5.83A51.5,51.5,0,0,0,4,73.83C2.93,77.75.88,81.44.23,85.45a28.44,28.44,0,0,0-.1,6.39c.13,2.21-.22,4.4.06,6.6l0,.41c.43,3.7.88,7.46,1.66,11.1a53.31,53.31,0,0,0,4.54,12c.92,1.9,1.48,4,2.64,5.76s2.44,3.64,3.78,5.37,2.78,3.38,4.11,5.11,2.17,3.59,3.59,5l.88.88A106.61,106.61,0,0,0,35.33,156l.37.26c1.27.89,2.22,2.12,3.42,3.11a26.51,26.51,0,0,0,3.3,2.23c2.61,1.53,5.34,2.86,8,4.3,5.29,2.85,10.48,6.09,16.14,8.12l.75.27c1,.37,2.07.84,3.15,1.14s2.36.2,3.4.7a27.61,27.61,0,0,0,2.79,1.5c1.06.38,2.16.67,3.22,1,2.11.67,4.23,1.24,6.38,1.73,2.67.62,5.23,1.63,7.9,2.23,2.46.54,4.88,1.09,7.32,1.71s4.87.59,7.31,1.07a122.4,122.4,0,0,0,15.72,2.12c5.14.31,10.28.31,15.42.58,2.52.13,5-.16,7.52-.17,2.72,0,5.44,0,8.17-.17,5.18-.4,10.26-1.3,15.41-1.89,2.45-.27,4.89-.4,7.32-.74,2.24-.32,4.4-1.1,6.63-1.5a132.32,132.32,0,0,0,16.73-4.27c1.31-.41,2.57-1,3.88-1.38s2.68-.42,4-.82c1.14-.37,2.11-1,3.22-1.42,1.49-.51,2.92-1.08,4.36-1.73l1.27-.56c2.94-1.29,5.93-2.47,8.84-3.81s5.54-2.88,8.31-4.31l3.5-2.52c6.93-5.11,13.93-10.16,20.08-16.2l.52-.52a44.1,44.1,0,0,0,5.51-5.84,56.17,56.17,0,0,1,4.09-5.76c3.46-3.78,5.2-8.55,7.46-13.07s4.49-8.48,5.23-13.47c.37-2.46.58-4.92.94-7.38a30.47,30.47,0,0,0,.52-6.94c-.09-1.11,0,.54,0,0m-275.25,0a28.18,28.18,0,0,1,.43-8.3c.55-3,2-5.65,2.61-8.58A20.44,20.44,0,0,1,12,72.59c.57-1.33,1.48-2.48,2.1-3.79A33.41,33.41,0,0,1,16,65.09a39.77,39.77,0,0,0,2.46-3.48,28.65,28.65,0,0,1,4.57-6.92c1.8-2,3.36-4.17,5.27-6,4.53-4.45,9.2-9.09,14.41-12.74,2.84-2,5.89-3.67,8.69-5.7s5.89-3.26,9.12-4.7l.61-.27c1.18-.52,2.34-1.07,3.52-1.59l1.15-.51a76.48,76.48,0,0,1,10.7-3.91c3.33-.93,6.46-2.41,9.86-3.12l.46-.1c5.15-1.09,10.08-3,15.28-3.75l3-.45a15.74,15.74,0,0,0,3.69-1.36c2.59-1.08,5-.52,7.66-.64s5.09-.74,7.65-.89,4.84.18,7.28-.26c5.26-.94,10.81-.36,16.14-.23,3.27.08,6.6,0,9.85.27a29.74,29.74,0,0,1,4.47.9c1.6.39,3.24.47,4.86.72l2.39.36c4.1.63,8.46.92,12.42,2.15s7.95,1.37,11.88,2.37c3.64.93,7.06,2.42,10.73,3.3a59,59,0,0,1,11.69,4.26l.29.14c5.14,2.47,10.14,5.07,15,8,2.52,1.53,5,3.09,7.52,4.64a59.34,59.34,0,0,1,6,4.76c2,1.62,4,3,5.82,4.74s3.77,3.71,5.75,5.48a48.71,48.71,0,0,1,5.12,5.88,51.93,51.93,0,0,1,5,7.13l.47.81a71.14,71.14,0,0,1,7.22,18.51,73,73,0,0,1,1.25,8.69c.36,2.93-.22,5.77-.45,8.69-1,12.68-7.79,24-15.54,33.88-3.5,4.43-7.81,8.3-11.73,12.36a58.41,58.41,0,0,1-7.33,6.19c-2.5,1.86-4.83,3.91-7.38,5.72a45.29,45.29,0,0,1-8.43,4.59c-3,1.34-6,2.79-9.07,3.92s-6.12,2.62-9.3,3.49c-2.57.7-5.17,1.21-7.74,2-7.15,2.12-14.45,3.59-21.75,5.16a97.74,97.74,0,0,1-20.53,2.11l-2,.15c-4.44.37-8.9.64-13.36.59-4,0-7.87-.49-11.83-.5-4.14,0-8.24-.78-12.37-1.09-4.55-.35-9-1.13-13.52-1.9l-2.68-.46a93.82,93.82,0,0,1-10.08-2.85l-3.57-1.05a157,157,0,0,1-17.49-5.77c-5.7-2.43-11.11-5.57-16.53-8.55a84.19,84.19,0,0,1-8.19-4.74C42.2,151.83,40.2,149.79,38,148s-4.75-3.4-6.87-5.38c-2.39-2.23-4.5-4.82-6.7-7.25a64.13,64.13,0,0,1-14.25-26L9.8,108a35.81,35.81,0,0,1-1.34-7c-.16-2.48,0-4.94-.3-7.42-.05-.51.17,1.66,0,0m178.76,59.84c-4,.09-4-.12-4.1-4.58a35.21,35.21,0,0,1,0-4.36,27.94,27.94,0,0,0-.08-4.29l0-.55c-.38-5.84.34-11.79.28-17.65v-2.47c0-2.87-.11-5.72,0-8.59.09-2.6-.3-5.24-.15-7.81l0-.32c0-.22,0-.43.06-.64s0-.67,0-.92c0-3.51.17-7,.3-10.51s-.1-7.07,0-10.6l0-.71c.07-2.14-.81-4-.79-6.14s.54-4.45.53-6.7-.17-4.28-.06-6.49a69.76,69.76,0,0,0-.1-7.23l-.07-1.48c-.06-1.51-.12-3-.2-4.51-.54-11.42-.17-11.59,3.06-11.66s2.6.73,4.83,11.84c.24,1.22.54,2.43.87,3.69a37.28,37.28,0,0,1,1,4.7,47.88,47.88,0,0,0,.54,5.07l.13.6c.52,2.4.95,4.9,1.7,7.24a66.62,66.62,0,0,1,2.3,6.82,26.69,26.69,0,0,0,.89,3.76c.45,1.19,1.12,2.28,1.58,3.46.83,2.21.7,4.43,1.14,6.69l.51,2.64c.94,4.92,1.91,9.82,3.09,14.68,1.09,4.51,1.56,9.2,2.89,13.65v0c.25-1.16-.3-2.66.17-3.72l-.07-.59q-.25-2.47-.51-5l-.06-.46c-.24-1.87,0-3.78-.16-5.67a42,42,0,0,1-.51-5.33l.21-6c.09-2.84.19-5.68.27-8.51l0-.36c.09-3.14-.47-6.18-.45-9.28v-.28c0-7.22.56-14.5.31-21.72l-.22-7.83c-.22-10.16-.22-10.27,3-10.34,3.92-.09,3.83.23,4,7.24v2.18c0,3.11.09,6.22.16,9.33l.07,3c0,.12,0,.24,0,.36.12,3.3-.11,6.6-.09,9.9,0,3.06.2,6.09.14,9.16,0,2.78.14,5.56.07,8.34s-.4,5.72-.34,8.59v1.14c0,2.23.09,4.46.14,6.69l0,1.15c.14,5.49.26,11,.17,16.43-.09,5.66-.57,11.31-.31,17l0,1c.17,3.78.07,7.75.15,11.55.1,4.61-.21,4.62-2.35,4.66s-2.47-.72-5.12-9a68.94,68.94,0,0,1-2.17-8.81,30,30,0,0,0-1.41-6.56l-.35-1.22c-4-14-6.63-28.25-10.06-42.38l0-.2c-.53-2.2-.47-4.49-1.15-6.66a37.21,37.21,0,0,1-1.56-6c-.06,4.79.84,9.57,1,14.35.15,4.33-.06,8.67-.07,13,0,4.53-.18,9.11.12,13.63s-.14,9.21.08,13.84l.09,1.81c.1,2.66-.24,5.3-.37,8-.11,2.48-.05,5,0,7.44.06,2.24-.28,4.67-.23,6.93.06,3.08-1.24,2.64-2.88,2.67m-42.61-19.22c0-.81.05,1,0,0-.18-3.6-.47-7.13-.45-10.74v-.73c0-2.68.54-5.33.51-8,0-2.48-.32-4.93-.27-7.4l0-.73c.05-2.8,0-5.6,0-8.4,0-3-.07-5.95-.11-8.93,0-2.63.3-5.18.36-7.8v-.84c-.47-2.54-.33-5.36-.63-8l-.05-.42c-.29-2.53.44-5.14.28-7.71a80.26,80.26,0,0,1-.19-8.35c.19-4.77.55-10.53,2.73-14.87a13.07,13.07,0,0,1,9.66-6.68,18.11,18.11,0,0,1,6.1-.12c2,.38,4.28,2,6,3,3.22,2.1,4.94,6.33,5.22,10,.83,10.58.85,10.76-2.47,10.83-5.57.12-4.32-.7-4.65-8.34-.15-3.23-1.28-6.12-4.45-7.37-3.38-1.35-7.77-.94-9.31,2.9-1.87,4.65-1.53,9.78-1.54,14.68v2.68a1.34,1.34,0,0,1-.05.35l0,2.08c.06,2.86,0,5.76.3,8.62l.09.87a94.24,94.24,0,0,1,.41,9.8v.62c0,3.25-.73,6.41-.7,9.66,0,3,.84,5.83.49,8.81-.13,1.25-.53,2.46-.56,3.73s.33,2.58.41,3.88c.19,3-.34,6-.45,9l0,.4c-.09,2.15-.22,4.33-.2,6.48s.62,4,.79,6c.29,3.72.7,8.27,2.88,11.44s6.45,2.27,9.07.4a6.23,6.23,0,0,0,2.86-4.47c.1-2,0-4,.12-6l.14-1.94c.3-4.4.1-8.84.45-13.22a130.19,130.19,0,0,0,.41-13.1,50.47,50.47,0,0,1,.1-5.22c.05-.55.64-2.55.19-3-.63-.58-3.32-.33-4.09-.4a26.43,26.43,0,0,0-3.67,0c-2.66,0-2.4-8.56-.45-8.6s5.77-.56,7.63-.58c2.15,0,5.23.14,6.78,1.89,1.95,2.21.83,6.11.78,8.77-.06,3.69.12,7.38.16,11.07s-.55,7.6-.53,11.42v.89c0,.78.05,1.55,0,2.32l-.14,3.11c-.31,7.16.68,15.94-4.69,21.52-1.26,1.3-2.42,2.64-4.18,3.25a24.3,24.3,0,0,1-5.58.78c-3.93.38-6.93-1-10-3.38l-.59-.44c-2.06-1.55-3-4.5-3.64-6.88a40.5,40.5,0,0,1-1.33-8.7m-35.83-92.6c0-.27.06.47,0,0-.79-6.1-.59-6.45,3.19-6.62,4.14-.18,3.38.15,3.94,5.75.26,2.54.51,5.07.72,7.61.41,5.08,1.12,10.14,1.33,15.23s1.24,9.74,1.63,14.69l.12,1.47c.69,8.4,1.9,16.68,2.59,25.08l.24,3a1.18,1.18,0,0,1-.1.62l1.37,12.11c0,.36.09.72.13,1.09l.15-1a56.94,56.94,0,0,0,.86-8.44c0-2.75.56-5.48.81-8.23l.08-.79a38.66,38.66,0,0,1,.52-6.41c.2-2.22.72-4.39.77-6.63a98.17,98.17,0,0,1,1.21-13l.29-1.94c0-.11,0-.21,0-.32l.07-1.17q.44-7.18.85-14.36l.05-.84c.08-1.71.46-3.27.7-4.94a45.13,45.13,0,0,0,.18-5.07l.05-1.59c0-2,.55-4,.57-6.07.08-8.53,1.54-6.84,4.45-6.67s3.74-.41,2.73,8.39c-.24,2.09-.44,4.19-.74,6.28-.54,3.72-.68,7.36-.9,11.11l-.09,1.43c-.13,2.25-.28,4.5-.48,6.75l-.22,2.69c-.3,3.69-.62,7.38-1.08,11.06-.42,3.41-.13,6.76-.59,10.18l-.14,1c-1,7.93-1.81,15.87-2.64,23.83-.34,3.37-1.16,6.67-1.36,10-.21,3.56-.64,7.08-.87,10.62s-1.2,7.29-1.66,10.94c-.64,5.19-1.17,5.2-3.39,5.21-3.37,0-3.86-.71-4-7.21,0-1.49-.24-2.91-.22-4.4a26.15,26.15,0,0,0-.42-4.84,76.25,76.25,0,0,1-1.41-9.86,70.51,70.51,0,0,0-1.1-11.24l-.15-.78c-.94-4.77-1.29-9.55-1.82-14.37-.24-2.19-.9-4.25-1-6.48s-.46-4.43-.69-6.66v-.16c-.21-2-.22-4.05-.36-6.08-.13-1.81-.54-3.56-.64-5.37-.2-3.88-.78-7.66-1.2-11.5-.2-1.89-.14-3.78-.34-5.66s-.69-3.89-1-5.84c-.54-3.9-.61-7.83-1.1-11.73m-29.7,88.23c0,1.68,0,6.09.33,8.83s1.16,5.42,3.45,6.75c2.53,1.46,8.16.63,9.92-1.74,1.18-1.58,1.36-3.57,1.64-5.45a39.53,39.53,0,0,0,.45-5.74c0-1.94.93-3.56.73-5.52a43,43,0,0,1-.1-6.81l.06-1c.24-4.61.79-10.57-1.38-14.81a22.8,22.8,0,0,0-4.69-5.76,33.51,33.51,0,0,0-5-4.28,34,34,0,0,1-7.52-4.88,10.4,10.4,0,0,1-3.39-6.28,44,44,0,0,1-.66-7.68c0-2.58.36-5.15.2-7.72-.31-5.31-.67-10.71-.63-16a17.3,17.3,0,0,1,4.5-12.16C80,36,83.89,33.82,88.87,34.71l.2,0c3,.63,5.44,1.41,7.66,3.63,2.5,2.48,3.24,5.33,3.94,8.67a56.13,56.13,0,0,1,1.5,9.52c.14,4.15,1.67,4.61-3.19,4.68s-3,.12-5.46-12.67c-.53-2.74-1.7-5.31-4.62-5.94-1.47-.31-3.33-.84-4.76-.23a7,7,0,0,0-2.69,2.22c-1.48,2-1.77,5-1.91,7.48-.17,3.09.32,6.14.44,9.23l0,.54a76.83,76.83,0,0,1,.07,9.23v.13a43.06,43.06,0,0,0,.31,7.44,8.67,8.67,0,0,0,.45,3.1A10.49,10.49,0,0,0,83,83.91a18.26,18.26,0,0,0,2.38,2,23.74,23.74,0,0,1,2.58,1.54c1.83,1.57,3.52,3.34,5.27,5l.32.3c2.74,2.57,5.53,4.63,7,8.24s1.58,7.77,1.87,11.57a99.39,99.39,0,0,1-.22,12.68c-.21,4.22-.15,8.42-.68,12.62l0,.3c-.11.81-.25,1.63-.38,2.44l-.15.88a18.3,18.3,0,0,1-3,7.81c-1.72,2.4-4.38,3.48-7.2,4-5.21,1-12.52.62-15.52-4.53A27.15,27.15,0,0,1,72,140.57a77.62,77.62,0,0,1-.6-9c-.39-7.29.95-5.5,4-5.52,3.5,0,3.3-.56,3.42,3.81m165.64-2.72c4,1.76,6.27,4.34,5.9,5.32-.26.64-4.13.71-7.44-.25-5-1.43-10.25-1.91-15.2-3.43a6.52,6.52,0,0,1-1-.43c-3.62-2-1.87-2.34-.72-4.1.32-.5.64-1,1-1.48,1.09-1.55.49-2.73,4.13-1.48,1.06.36,2.07.85,3,1.25l8,3.56,2.37,1m4.25-71.26c.75,1.41-3.39,4.13-6.45,5.16-2.35.79-4.72,1.57-7.06,2.39s-4.51,1.88-6.83,2.55c-1.57.45-2.67.61-3.66-.55a5.71,5.71,0,0,1-.39-.47l-.3-.39c-.62-.77-1.22-1.61-1.87-2.3-1.3-1.38.07-2.47,2.59-3.34l.25-.08c5-1.73,10.38-2.1,15.54-3.25,4.45-1,7.71-.61,8.18.28M55.41,120.25c1.41-.27,1.33-.07,2.08.85.58.72,1.17,1.42,1.73,2.15,1.07,1.37,1.74,1.78.87,3.08s-3.17,1.87-4.74,2.19c-1.85.4-3.72.72-5.57,1.1s-3.38.74-5,1.22c-.64.18-1.3.41-2,.64-3.63,1.24-8.25.65-8.58-.63-.56-2.12,5.44-4.68,6.28-5,2-.85,4.07-1.74,6.13-2.52a56.44,56.44,0,0,1,8.79-3h0M58.05,66a2.25,2.25,0,0,1-2.27,1l-.44-.09c-3.39-.64-6.77-2.25-10-3.41-1.61-.57-3.45-1-5.2-1.68C37.83,61,33.44,57.66,34,56.45c.29-.67,3.1-1.38,6.95-.54l4.3.94c4.22.92,9.2,1.32,13,3.38,3,1.6,2.57,2.68,1.76,3.55-.57.62-1.17,1.22-1.71,1.86Zm166.76,16a2.08,2.08,0,0,1,1-2.72A14.56,14.56,0,0,1,231,78.3c2.16-.19,4.33-.37,6.49-.54l2.27-.19c1.9-.15,3.54-.07,5.38-.24,4.56-.4,6.36-.61,10.95-.67,2.78,0,8.68-.36,8.89,1.31.17,1.37-3.88,3.4-8.12,4-2.59.38-5.19.78-7.74,1.37-4,.91-8,1.78-12.13,2.34-2.05.28-4.11.46-6.18.57-1,0-2.12.24-3.21.25-1.39,0-1.84-.23-2.19-1.88-.18-.91-.41-1.81-.64-2.72m30.29,23.25c5.36,1.08,10.51,3,10.22,4.39s-5.29,1.34-11,.91a49.69,49.69,0,0,1-7.18-.94c-4.47-1-9-1-13.58-1.44l-1.37-.11L229,107.7l-.38,0a14,14,0,0,1-2.23-.36c-1.54-.4-1.54-1.36-1.14-2.6a15,15,0,0,0,.55-2.31c.4-2.67,1.08-3,2.82-2.89a28.32,28.32,0,0,1,4.27.8l9.48,2.27c4.21,1,8.48,1.76,12.72,2.61m-194.85-25c2.39.47,2.75.65,2.31,2.26-.31,1.15-.72,2.27-1.12,3.4-.73,2.08-.46,2.11-3,1.84-1-.11-1.92-.28-2.74-.4-2.33-.34-4.67-.7-7-1s-4.54-.55-6.78-1c-1.06-.2-2.13-.58-3.2-.7s-2.23,0-3.34-.07a54.75,54.75,0,0,1-5.55-.74l-1.46-.24c-3.61-.6-8.31-3.3-8-4.2.48-1.4,5.19-1.83,10.24-1.4,3.89.33,7.78.71,11.69.88,5.62.25,11.33,0,16.85,1.16l1.07.21m3,18.17c2.36.1,3.13.34,3.38,2.14.1.7.21,1.4.35,2.08a16.69,16.69,0,0,0,.53,1.87c.37,1.09.35,1.61-.94,2.12-1.75.67-4.15.5-5.81.52a60.83,60.83,0,0,0-8.08.75c-5.33.76-10.8.6-16.16,1-2,.13-4,.33-6,.58-6.59.8-12.07,0-12.32-1.07s3-3.09,11.05-4.6c3.41-.64,6.83-1.33,10.28-1.86l1.36-.2c7-1.08,13.87-2.94,21-3.34H62l1.27.06"></path></g></g></svg>